<svg width="24" height="24" viewBox="0 0 24 24" fill="none" xmlns="http://www.w3.org/2000/svg">
<g clip-path="url(#clip0_382_2487)">
<path d="M2.23902 18.967L2.21558 18.9956L2.73511 19.6321C2.87964 19.8091 3.02905 19.981 3.18091 20.1441C3.25904 20.228 3.3374 20.3115 3.39404 20.363L3.44263 20.4111C3.57056 20.5391 3.69898 20.667 3.83545 20.7986C3.948 20.9055 4.06543 21.0081 4.19702 21.1216L4.25 21.165C4.29151 21.1961 4.33057 21.2285 4.37061 21.262L4.44702 21.325C4.61304 21.4627 4.77906 21.5886 4.92505 21.6899C5.11695 21.834 5.32764 21.9775 5.56592 22.1292L5.54102 22.1392L5.74512 22.241C5.81446 22.2835 5.88306 22.3259 5.95801 22.3706C6.16895 22.4929 6.38062 22.6091 6.56763 22.6995C6.64014 22.7376 6.71753 22.7761 6.79493 22.814L6.93848 22.8836C7.02344 22.9221 7.10962 22.9551 7.19458 22.9924C7.27857 23.0295 7.36304 23.0654 7.44849 23.1011C7.4834 23.1155 7.51758 23.1316 7.55249 23.1455L7.75757 23.26H7.844C7.84449 23.26 7.84546 23.2605 7.84595 23.2605L8.0066 23.3211L8.01197 23.3186C8.05909 23.335 8.10596 23.3525 8.15259 23.3679C8.20801 23.3865 8.26514 23.4026 8.32105 23.4207C8.39551 23.4446 8.46998 23.468 8.54493 23.4905C8.56641 23.4971 8.58741 23.5046 8.60914 23.5105C8.65992 23.5291 8.69507 23.5376 8.70044 23.5386C8.79859 23.5676 8.89356 23.5925 8.98414 23.6155C9.02393 23.626 9.06446 23.6345 9.1045 23.6445C9.11597 23.647 9.13062 23.6511 9.1421 23.6536C9.14698 23.655 9.15211 23.6555 9.15699 23.6565C9.50098 23.7405 9.8501 23.8115 10.2046 23.865C10.2295 23.8691 10.2546 23.8745 10.2795 23.8784L10.4121 23.895C10.4861 23.9041 10.5596 23.9116 10.6336 23.9199C10.6995 23.9275 10.7644 23.936 10.8311 23.9421C10.8406 23.9431 10.8506 23.9446 10.8606 23.9456C11.032 23.9614 11.2014 23.9766 11.3535 23.9819C11.5681 23.9937 11.783 24 12 24C12.1799 24 12.3535 23.9951 12.5215 23.9871C12.5911 23.9841 12.6594 23.98 12.7285 23.9761C12.8645 23.9685 13.0061 23.9575 13.1545 23.9436C13.1914 23.9399 13.2285 23.937 13.2656 23.9331C13.2935 23.9299 13.3181 23.9285 13.3474 23.9251L13.5291 23.9036C13.6836 23.886 13.8445 23.8621 13.9605 23.8391C14.0005 23.833 14.0405 23.8225 14.0806 23.8159C14.2246 23.7905 14.3684 23.7647 14.5105 23.7341C14.512 23.7337 14.5139 23.7337 14.5156 23.7332C14.6274 23.7114 14.7429 23.6851 14.8474 23.6602C14.8955 23.6489 14.9426 23.635 14.9905 23.6226C14.9934 23.6216 14.9971 23.6211 15 23.6201C15.0754 23.6006 15.1511 23.582 15.2251 23.5615L15.4541 23.4961C15.4929 23.4841 15.5249 23.4727 15.563 23.46C15.5645 23.4595 15.5654 23.459 15.5671 23.4585C15.6685 23.4265 15.7715 23.3941 15.8584 23.363L16.0244 23.311C16.2224 23.239 16.4204 23.1621 16.596 23.0872C16.6184 23.0781 16.6406 23.0667 16.6636 23.0571C16.6694 23.0545 16.6751 23.0515 16.6809 23.0491C16.854 22.9766 17.0271 22.8997 17.1956 22.8201C17.3936 22.7266 17.5855 22.6231 17.7756 22.5195C17.9446 22.428 18.1045 22.3325 18.2639 22.2361L18.45 22.1211C18.5759 22.0386 18.699 21.958 18.822 21.8711C18.8765 21.8359 18.9351 21.7966 18.9795 21.7625C19.0945 21.6785 19.21 21.5935 19.323 21.5061L19.4255 21.429C19.5811 21.3062 19.7361 21.1775 19.8855 21.0496L20.0271 20.928L20.0339 20.915C20.1484 20.812 20.261 20.7036 20.3779 20.5911C20.531 20.4441 20.6831 20.2861 20.8316 20.1265C20.9785 19.9685 21.1211 19.8045 21.2576 19.6411L21.7891 19.0029L21.76 18.968C23.168 17.0015 24 14.5964 24 12C24 9.40357 23.168 6.99855 21.761 5.03248L21.7901 4.99757L21.2586 4.35963C21.1226 4.19606 20.9795 4.03248 20.8316 3.87257C20.688 3.71901 20.5405 3.57057 20.3716 3.4026C20.2595 3.29567 20.1484 3.18849 20.0344 3.08546L19.886 2.95094C19.7366 2.82301 19.5816 2.6941 19.426 2.57154L19.3235 2.49464C19.2109 2.40699 19.0974 2.3235 18.99 2.24513C18.9365 2.20509 18.8775 2.16505 18.8225 2.13014C18.6995 2.04298 18.5764 1.96266 18.4505 1.88014L18.2854 1.77198L18.2644 1.76515C18.1055 1.66847 17.9451 1.57301 17.7781 1.48243C17.5859 1.37794 17.3936 1.27394 17.1961 1.18116C16.9995 1.08815 16.7976 0.996106 16.614 0.921643C16.4209 0.838635 16.2236 0.761486 16.0249 0.689953L15.8779 0.644543C15.7385 0.594494 15.5991 0.550061 15.4336 0.499035L15.2224 0.438489C15.1116 0.406994 14.9951 0.3755 14.8784 0.348156L14.74 0.314465C14.6741 0.299573 14.606 0.283948 14.541 0.271496L14.4446 0.240002H14.396C14.2886 0.216076 14.178 0.195569 14.0686 0.177502L13.9985 0.167493C13.844 0.137951 13.6831 0.114026 13.5571 0.10011L13.3101 0.0705687C13.2876 0.0681273 13.2656 0.0666624 13.2429 0.0644652C13.2246 0.062512 13.2056 0.0610472 13.187 0.0595823C13.0276 0.0444457 12.8701 0.0319945 12.7241 0.0239378C12.6604 0.0200315 12.5964 0.0166136 12.5325 0.0134398C12.1506 -0.00584734 11.7524 -0.00340593 11.417 0.0151488C11.3115 0.0200315 11.2065 0.029553 11.1016 0.0376097C11.0215 0.0439573 10.9414 0.0471312 10.8621 0.0549437C10.8535 0.0561644 10.8445 0.0571409 10.8359 0.0581175C10.7625 0.0649534 10.6899 0.0744749 10.617 0.0830198C10.543 0.0915648 10.4695 0.0986448 10.3955 0.108166L10.2896 0.120129C10.2625 0.124035 10.2341 0.130139 10.207 0.134534C9.95264 0.173108 9.70142 0.220959 9.45264 0.275158L9.44263 0.277112C9.3545 0.293469 9.27198 0.313489 9.17359 0.339123C9.14356 0.345471 9.11451 0.353528 9.08448 0.360608C9.0525 0.368664 9.02051 0.3755 8.98902 0.383557C8.89747 0.406506 8.80958 0.429455 8.73462 0.45216C8.70997 0.458508 8.667 0.469494 8.61304 0.488537L8.58912 0.495129C8.43262 0.53761 8.2815 0.585461 8.15601 0.631115C8.10791 0.646985 8.06104 0.664563 8.01294 0.681164L8.00708 0.678479L7.83545 0.742932C7.83448 0.743664 7.8335 0.743664 7.83252 0.744153L7.73951 0.746106L7.40357 0.916516C7.3335 0.945568 7.26441 0.976574 7.19507 1.00709C7.11011 1.04445 7.02344 1.07814 6.93897 1.11598L6.79541 1.18556C6.71802 1.22413 6.64014 1.26197 6.60498 1.28199C6.47754 1.34254 6.35059 1.40895 6.25513 1.46461C6.1731 1.50807 6.08692 1.55494 6.00391 1.60304L5.76514 1.74611C5.7605 1.74855 5.75611 1.75148 5.75196 1.75465L5.54151 1.8611L5.56592 1.87062C5.52759 1.89503 5.48804 1.91847 5.44947 1.94362L5.34912 2.01149L5.34595 2.01466C5.20752 2.10646 5.07642 2.1985 4.97193 2.27662C4.94092 2.29713 4.90991 2.31959 4.86206 2.35499C4.74903 2.43409 4.63745 2.51759 4.52954 2.61012C4.5 2.63258 4.4751 2.65211 4.45508 2.66847L4.21558 2.86647C4.08692 2.97194 3.95752 3.084 3.81763 3.21803L3.66553 3.36549C3.56812 3.45265 3.47559 3.54444 3.38355 3.64601C3.31299 3.71363 3.24756 3.78346 3.18408 3.85255C3.02857 4.01905 2.87964 4.19093 2.73511 4.36793L2.21558 5.00465L2.23902 5.03297C0.831543 6.99903 0 9.40357 0 12C0 14.5964 0.831543 17.001 2.23902 18.967ZM11.0071 2.05055C11.334 2.01808 11.665 2.00001 12 2.00001C12.6809 2.00001 13.346 2.06959 13.989 2.19996C14.0005 2.20265 14.0125 2.20411 14.0234 2.20704L14.1406 2.24562H14.1741C16.0935 2.67311 17.8054 3.65065 19.136 5.00807C18.0256 6.13404 16.656 6.98805 15.1636 7.48805L15.1555 7.46266L15.114 7.4756C15.1011 7.44361 15.0845 7.41261 15.0711 7.38063C14.9924 7.19361 14.9089 7.00904 14.8211 6.82594C14.791 6.76344 14.7625 6.69996 14.731 6.63795C14.6111 6.40016 14.4846 6.16554 14.3496 5.93605C14.3291 5.90113 14.3059 5.86744 14.2849 5.83302C14.168 5.63917 14.0454 5.44899 13.918 5.26197C13.8716 5.1941 13.824 5.12745 13.7761 5.06056C13.6621 4.90065 13.544 4.74415 13.4226 4.5901C13.3755 4.53053 13.3296 4.46998 13.2815 4.41163C13.1135 4.20655 12.9399 4.00563 12.759 3.81202C12.7415 3.79347 12.7229 3.77613 12.7051 3.75758C12.5396 3.58302 12.3684 3.41407 12.1936 3.24952C12.1336 3.19313 12.0725 3.13844 12.011 3.08351C11.8674 2.95411 11.721 2.82862 11.5715 2.70607C11.509 2.65504 11.447 2.60304 11.3836 2.55299C11.178 2.39161 10.9685 2.23463 10.7524 2.08644C10.8154 2.07862 10.8765 2.06446 10.9399 2.05812C10.9624 2.05543 10.9846 2.0525 11.0071 2.05055ZM14.0459 21.7881C14.0271 21.7925 14.0071 21.7962 13.988 21.8005C13.6726 21.8645 13.3525 21.9141 13.0271 21.9475C13.022 21.948 13.0166 21.9485 13.0115 21.949C12.679 21.9824 12.3416 22 12 22C11.6641 22 11.332 21.9819 11.0046 21.9495C10.9841 21.9475 10.9631 21.9451 10.9426 21.9426C10.8779 21.9356 10.8164 21.9216 10.7524 21.9136C10.9685 21.7656 11.178 21.6087 11.3836 21.447C11.447 21.397 11.509 21.345 11.5715 21.294C11.721 21.1716 11.8674 21.0462 12.011 20.9165C12.072 20.8616 12.1336 20.8071 12.1936 20.7505C12.3691 20.5859 12.54 20.417 12.7051 20.2424C12.7224 20.2241 12.7415 20.2066 12.759 20.188C12.9399 19.9946 13.113 19.7935 13.2815 19.5886C13.3296 19.53 13.3755 19.4695 13.4226 19.4102C13.544 19.2561 13.6621 19.0991 13.7761 18.9395C13.824 18.8726 13.8716 18.8054 13.918 18.738C14.0454 18.551 14.168 18.3611 14.2849 18.167C14.3059 18.1326 14.3291 18.0986 14.3496 18.064C14.4851 17.8345 14.6111 17.6006 14.731 17.3621C14.7625 17.3001 14.791 17.2366 14.8211 17.1741C14.9089 16.9915 14.9924 16.8071 15.0711 16.6196C15.0845 16.5877 15.1006 16.5566 15.114 16.5247L15.1555 16.5376L15.1636 16.512C16.656 17.012 18.0256 17.866 19.136 18.992C17.7761 20.3806 16.0181 21.376 14.0459 21.7881ZM13.1165 16.1065C13.0086 16.3445 12.8894 16.5772 12.7634 16.8049C12.739 16.8496 12.7151 16.895 12.6899 16.939C12.5576 17.1699 12.416 17.3955 12.2656 17.615C12.2351 17.6602 12.2031 17.7041 12.1716 17.7481C12.0129 17.9727 11.8479 18.1926 11.6716 18.4031C11.667 18.408 11.6626 18.4131 11.658 18.4185C11.4829 18.6265 11.2981 18.8254 11.1069 19.0186C11.0715 19.0545 11.0366 19.0911 11.0005 19.1265C10.8096 19.3145 10.6111 19.4946 10.4055 19.667C10.367 19.6995 10.3269 19.731 10.2881 19.7625C10.073 19.9375 9.85303 20.1065 9.62403 20.2634C9.62305 20.2642 9.62208 20.2651 9.6211 20.2656C9.39161 20.4226 9.15308 20.5676 8.91114 20.7051C8.86597 20.7305 8.82154 20.7566 8.77662 20.7815C8.53956 20.9116 8.29712 21.032 8.04957 21.1426C8.03492 21.1489 8.02002 21.155 8.00562 21.1616C7.76001 21.054 7.51856 20.9395 7.28394 20.8135C7.25611 20.7986 7.22803 20.7835 7.20044 20.7686C6.33545 20.293 5.55005 19.6921 4.86402 18.992C7.00708 16.8135 10.0554 15.7166 13.1375 16.0649C13.1306 16.0786 13.1231 16.0925 13.1165 16.1065ZM6.39991 3.71949C6.40699 3.7151 6.41407 3.70997 6.4209 3.70509C6.91846 3.36964 7.44947 3.08155 8.00513 2.83815C8.02051 2.84498 8.03711 2.85109 8.0525 2.85817C8.29859 2.96803 8.53956 3.08766 8.77491 3.21656C8.82154 3.24195 8.86695 3.26857 8.91358 3.29493C9.15504 3.43263 9.39258 3.57667 9.62159 3.73317C9.62305 3.73414 9.62452 3.73561 9.62647 3.73658C9.85499 3.89308 10.0745 4.06153 10.2886 4.23609C10.3281 4.26808 10.3674 4.29957 10.4065 4.33204C10.6121 4.50465 10.8106 4.68458 11.0015 4.87257C11.0376 4.90748 11.072 4.9441 11.1074 4.97999C11.2991 5.17359 11.4846 5.37306 11.6594 5.58107C11.6636 5.58595 11.668 5.59059 11.6726 5.59547C11.8491 5.80665 12.0139 6.02662 12.1731 6.25099C12.2041 6.29493 12.2361 6.33912 12.2666 6.38356C12.4165 6.60304 12.5586 6.82862 12.6909 7.06007C12.7166 7.1045 12.74 7.14967 12.7644 7.1941C12.8906 7.42262 13.0095 7.65455 13.1174 7.89259C13.124 7.9065 13.1311 7.91993 13.1375 7.93458C10.0544 8.28517 7.00708 7.18556 4.86402 5.00709C5.33155 4.53004 5.84449 4.09645 6.39991 3.71949ZM12 10C12.5891 10 13.1799 9.95167 13.7671 9.865C13.9194 10.564 14 11.2786 14 12C14 12.7214 13.9194 13.436 13.7671 14.135C13.1799 14.0486 12.5891 14 12 14C8.83961 14 5.84595 15.2337 3.6084 17.4199C2.59497 15.8565 2 13.9981 2 12C2 10.002 2.59497 8.14357 3.6084 6.58009C5.84595 8.76661 8.83961 10 12 10ZM20.387 17.4275C19.0769 16.1516 17.489 15.1785 15.7595 14.6055L15.7766 14.5515L15.7246 14.5396C15.9041 13.708 16 12.8582 16 12C16 11.1421 15.9041 10.292 15.7246 9.45997L15.7766 9.44801L15.7595 9.39405C17.489 8.82106 19.0769 7.84816 20.387 6.57203C21.4031 8.13746 22 9.99903 22 12C22 14.001 21.4031 15.8626 20.387 17.4275Z" fill="#181818"/>
</g>
<defs>
<clipPath id="clip0_382_2487">
<rect width="24" height="24" fill="white"/>
</clipPath>
</defs>
</svg>
