<svg width="24" height="24" viewBox="0 0 24 24" fill="none" xmlns="http://www.w3.org/2000/svg">
<path d="M18.9852 2.4594C17.3332 0.873472 15.0469 0 12.5477 0C8.72996 0 6.38189 1.56493 5.08438 2.87767C3.48529 4.49547 2.56836 6.64362 2.56836 8.77138C2.56836 11.4429 3.68582 13.4934 5.55712 14.2563C5.68275 14.3078 5.80917 14.3337 5.93311 14.3337C6.32789 14.3337 6.64069 14.0754 6.74906 13.661C6.81225 13.4233 6.9586 12.8369 7.02225 12.5823C7.15847 12.0795 7.04841 11.8377 6.75131 11.4876C6.21009 10.8472 5.95804 10.0899 5.95804 9.10438C5.95804 6.17698 8.13784 3.06578 12.1779 3.06578C15.3835 3.06578 17.3747 4.88772 17.3747 7.82052C17.3747 9.67124 16.9761 11.3852 16.252 12.6468C15.7489 13.5235 14.8641 14.5685 13.5058 14.5685C12.9185 14.5685 12.3909 14.3272 12.058 13.9066C11.7435 13.5089 11.6398 12.9953 11.7663 12.4599C11.9092 11.855 12.104 11.2241 12.2926 10.6141C12.6365 9.5001 12.9617 8.44789 12.9617 7.60841C12.9617 6.17252 12.0789 5.20769 10.7652 5.20769C9.09573 5.20769 7.78777 6.90336 7.78777 9.06805C7.78777 10.1297 8.06991 10.9237 8.19765 11.2286C7.98732 12.1197 6.73734 17.4176 6.50025 18.4166C6.36314 18.9997 5.53729 23.6059 6.90422 23.9731C8.44004 24.3858 9.81287 19.8997 9.95261 19.3928C10.0659 18.9806 10.4621 17.4216 10.7049 16.4634C11.4463 17.1775 12.6401 17.6603 13.8017 17.6603C15.9914 17.6603 17.9608 16.6749 19.3469 14.8858C20.6912 13.1505 21.4316 10.7318 21.4316 8.0757C21.4315 5.99923 20.5398 3.95209 18.9852 2.4594Z" fill="#181818"/>
</svg>
